<?xml version="1.0" encoding="utf-8"?>
<!-- Generator: Adobe Illustrator 16.0.0, SVG Export Plug-In . SVG Version: 6.00 Build 0)  -->
<!DOCTYPE svg PUBLIC "-//W3C//DTD SVG 1.1//EN" "http://www.w3.org/Graphics/SVG/1.1/DTD/svg11.dtd">
<svg version="1.1" id="Lager_1" xmlns="http://www.w3.org/2000/svg" xmlns:xlink="http://www.w3.org/1999/xlink" x="0px" y="0px"
	 width="235.131px" height="281.966px" viewBox="0 0 235.131 281.966" enable-background="new 0 0 235.131 281.966"
	 xml:space="preserve">
<linearGradient id="SVGID_1_" gradientUnits="userSpaceOnUse" x1="21.5889" y1="214.3872" x2="224.8695" y2="11.1066">
	<stop  offset="0" style="stop-color:#009FE3"/>
	<stop  offset="1" style="stop-color:#E6007E"/>
</linearGradient>
<path fill="url(#SVGID_1_)" d="M232.446,109.046c4.705,4.704,4.705,12.333,0,17.037L126.929,231.601
	c-4.704,4.705-12.333,4.705-17.037,0L4.374,126.083c-4.705-4.704-4.705-12.332,0-17.037L109.891,3.529
	c4.705-4.705,12.333-4.705,17.038,0L232.446,109.046z"/>
<g>
	<g>
		<path fill="#FFFFFF" d="M118.409,145.908L72.262,99.762l46.147-46.146l46.147,46.146L118.409,145.908z M77.919,99.762l40.49,40.49
			l40.491-40.49l-40.491-40.49L77.919,99.762z"/>
	</g>
	<g>
		<path fill="#FFFFFF" d="M118.409,182.289l-46.147-46.146l46.147-46.146l46.147,46.146L118.409,182.289z M77.919,136.142
			l40.49,40.49l40.491-40.49l-40.491-40.49L77.919,136.142z"/>
	</g>
	<g>
		<rect x="73.091" y="99.762" fill="#FFFFFF" width="4" height="36.38"/>
	</g>
	<g>
		<rect x="116.409" y="143.081" fill="#FFFFFF" width="4.001" height="34.835"/>
	</g>
	<g>
		<rect x="159.729" y="99.762" fill="#FFFFFF" width="4" height="36.38"/>
	</g>
	<g>
		<rect x="116.409" y="56.444" fill="#FFFFFF" width="4.001" height="36.38"/>
	</g>
	<g>
		<circle fill="#FFFFFF" cx="118.409" cy="177.916" r="8.526"/>
	</g>
	<g>
		<circle fill="#FFFFFF" cx="118.409" cy="143.081" r="8.526"/>
	</g>
	<g>
		<circle fill="#FFFFFF" cx="161.729" cy="135.369" r="8.526"/>
	</g>
	<g>
		<circle fill="#FFFFFF" cx="161.729" cy="100.535" r="8.526"/>
	</g>
	<g>
		<circle fill="#FFFFFF" cx="75.091" cy="135.369" r="8.526"/>
	</g>
	<g>
		<circle fill="#FFFFFF" cx="75.091" cy="100.535" r="8.526"/>
	</g>
	<g>
		<circle fill="#FFFFFF" cx="118.409" cy="92.05" r="8.526"/>
	</g>
	<g>
		<circle fill="#FFFFFF" cx="118.409" cy="57.216" r="8.526"/>
	</g>
</g>
<g>
	<path fill="#009FE3" d="M65.954,255.808v8.459h9.78v-8.459h2.64v20.219h-2.64v-9.479h-9.78v9.479h-2.61v-20.219H65.954z"/>
	<path fill="#009FE3" d="M84.284,269.248c0.06,3.57,2.34,5.039,4.98,5.039c1.89,0,3.03-0.33,4.02-0.75l0.45,1.891
		c-0.93,0.42-2.52,0.9-4.83,0.9c-4.47,0-7.14-2.939-7.14-7.32c0-4.379,2.58-7.83,6.81-7.83c4.74,0,6,4.17,6,6.84
		c0,0.541-0.06,0.961-0.09,1.23H84.284z M92.023,267.357c0.03-1.68-0.69-4.289-3.66-4.289c-2.67,0-3.84,2.459-4.05,4.289H92.023z"/>
	<path fill="#009FE3" d="M105.883,276.027l-0.21-1.83h-0.09c-0.81,1.141-2.37,2.16-4.44,2.16c-2.94,0-4.44-2.07-4.44-4.17
		c0-3.51,3.12-5.43,8.73-5.398v-0.301c0-1.199-0.33-3.359-3.3-3.359c-1.35,0-2.76,0.42-3.78,1.08l-0.6-1.74
		c1.2-0.781,2.94-1.291,4.77-1.291c4.44,0,5.52,3.031,5.52,5.941v5.43c0,1.26,0.06,2.488,0.24,3.479H105.883z M105.494,268.617
		c-2.88-0.059-6.15,0.451-6.15,3.271c0,1.709,1.14,2.52,2.49,2.52c1.89,0,3.09-1.201,3.51-2.43c0.09-0.27,0.15-0.57,0.15-0.84
		V268.617z"/>
	<path fill="#009FE3" d="M115.363,257.337v4.17h3.78v2.01h-3.78v7.83c0,1.801,0.51,2.82,1.98,2.82c0.69,0,1.2-0.09,1.53-0.18
		l0.12,1.98c-0.51,0.209-1.32,0.359-2.34,0.359c-1.23,0-2.22-0.391-2.85-1.109c-0.75-0.781-1.02-2.07-1.02-3.781v-7.92h-2.25v-2.01
		h2.25v-3.479L115.363,257.337z"/>
	<path fill="#009FE3" d="M139.242,267.148c-0.149-2.82-0.33-6.211-0.3-8.73h-0.09c-0.69,2.371-1.53,4.891-2.55,7.68l-3.57,9.811
		h-1.979l-3.271-9.631c-0.959-2.85-1.77-5.459-2.34-7.859h-0.06c-0.06,2.52-0.21,5.91-0.39,8.939l-0.54,8.67h-2.49l1.41-20.219
		h3.329l3.451,9.779c0.84,2.49,1.529,4.711,2.039,6.811h0.09c0.51-2.041,1.23-4.26,2.131-6.811l3.6-9.779h3.33l1.26,20.219h-2.551
		L139.242,267.148z"/>
	<path fill="#009FE3" d="M154.453,276.027l-0.211-1.83h-0.09c-0.81,1.141-2.369,2.16-4.439,2.16c-2.939,0-4.439-2.07-4.439-4.17
		c0-3.51,3.119-5.43,8.729-5.398v-0.301c0-1.199-0.33-3.359-3.3-3.359c-1.35,0-2.76,0.42-3.78,1.08l-0.6-1.74
		c1.2-0.781,2.94-1.291,4.77-1.291c4.44,0,5.521,3.031,5.521,5.941v5.43c0,1.26,0.06,2.488,0.239,3.479H154.453z M154.062,268.617
		c-2.879-0.059-6.149,0.451-6.149,3.271c0,1.709,1.14,2.52,2.489,2.52c1.891,0,3.09-1.201,3.51-2.43c0.091-0.27,0.15-0.57,0.15-0.84
		V268.617z"/>
	<path fill="#009FE3" d="M160.873,266.248c0-1.859-0.061-3.359-0.12-4.74h2.37l0.119,2.49h0.061c1.08-1.77,2.79-2.82,5.16-2.82
		c3.51,0,6.149,2.971,6.149,7.381c0,5.219-3.18,7.799-6.6,7.799c-1.92,0-3.6-0.84-4.47-2.279h-0.061v7.889h-2.609V266.248z
		 M163.482,270.117c0,0.391,0.061,0.75,0.121,1.08c0.479,1.83,2.069,3.09,3.959,3.09c2.79,0,4.41-2.279,4.41-5.609
		c0-2.91-1.529-5.398-4.32-5.398c-1.799,0-3.479,1.289-3.989,3.27c-0.091,0.33-0.181,0.719-0.181,1.08V270.117z"/>
</g>
</svg>
