<?xml version="1.0" encoding="utf-8"?>
<!-- Generator: Adobe Illustrator 16.0.0, SVG Export Plug-In . SVG Version: 6.00 Build 0)  -->
<!DOCTYPE svg PUBLIC "-//W3C//DTD SVG 1.1//EN" "http://www.w3.org/Graphics/SVG/1.1/DTD/svg11.dtd">
<svg version="1.1" id="Lager_1" xmlns="http://www.w3.org/2000/svg" xmlns:xlink="http://www.w3.org/1999/xlink" x="0px" y="0px"
	 width="235.131px" height="281.966px" viewBox="0 0 235.131 281.966" enable-background="new 0 0 235.131 281.966"
	 xml:space="preserve">
<linearGradient id="SVGID_1_" gradientUnits="userSpaceOnUse" x1="20.7441" y1="214.3872" x2="224.0242" y2="11.1071">
	<stop  offset="0" style="stop-color:#009FE3"/>
	<stop  offset="1" style="stop-color:#E6007E"/>
</linearGradient>
<path fill="url(#SVGID_1_)" d="M231.602,109.046c4.705,4.704,4.705,12.333,0,17.037L126.084,231.601
	c-4.704,4.705-12.333,4.705-17.037,0L3.529,126.083c-4.705-4.704-4.705-12.332,0-17.037L109.046,3.529
	c4.705-4.705,12.334-4.705,17.038,0L231.602,109.046z"/>
<path fill-rule="evenodd" clip-rule="evenodd" fill="none" stroke="#FFFFFF" stroke-width="4" stroke-miterlimit="10" d="
	M89.173,95.039c-0.478-11.501,8.074-26.258,24.695-28.6c13.58-1.914,27.097,6.947,30.892,20.207
	c2.777,9.712,0.593,18.592-4.418,27.018c-3.966,6.668-8.522,17.146-11.941,24.1c-4.571,9.301-5.765,12.654-8.296,24.574
	c-0.135,1.5-0.553,3.002-1.06,4.424c-0.195,0.553-0.966,1.164-1.536,1.232c-0.424,0.047-1.192-0.643-1.378-1.16
	c-0.495-1.363-0.956-2.795-1.078-4.229c-3.133-10.875-3.632-14.096-7.936-24.25c-3.246-6.016-8.299-17.957-11.807-23.832
	c-2.771-4.645-5.062-9.498-5.832-14.922C89.265,98.097,89.268,96.56,89.173,95.039z M117.557,107.51
	c7.646-0.417,12.814-4.64,12.716-12.829c-0.104-8.594-6.641-12.084-12.686-12.068c-6.5,0.016-12.682,3.885-12.725,12.035
	C104.819,103.244,110.293,107.089,117.557,107.51z"/>
<g>
	<path fill="#FFFFFF" d="M126.721,172.74c0,5.057-4.099,9.154-9.155,9.154s-9.156-4.098-9.156-9.154c0-5.059,4.1-9.158,9.156-9.158
		S126.721,167.681,126.721,172.74z"/>
</g>
<g>
	<path fill="#009FE3" d="M81.817,275.126c-1.17,0.422-3.48,1.111-6.21,1.111c-3.06,0-5.58-0.781-7.56-2.67
		c-1.74-1.68-2.82-4.381-2.82-7.529c0.03-6.031,4.17-10.439,10.949-10.439c2.34,0,4.17,0.51,5.04,0.93l-0.63,2.129
		c-1.08-0.48-2.43-0.869-4.47-0.869c-4.92,0-8.13,3.059-8.13,8.129c0,5.131,3.09,8.16,7.8,8.16c1.71,0,2.88-0.24,3.48-0.541v-6.029
		h-4.11v-2.1h6.66V275.126z"/>
	<path fill="#009FE3" d="M87.337,269.248c0.06,3.57,2.34,5.039,4.98,5.039c1.89,0,3.03-0.33,4.02-0.75l0.45,1.891
		c-0.93,0.42-2.52,0.9-4.83,0.9c-4.47,0-7.14-2.939-7.14-7.32c0-4.379,2.58-7.83,6.81-7.83c4.74,0,6,4.17,6,6.84
		c0,0.541-0.06,0.961-0.09,1.23H87.337z M95.077,267.357c0.03-1.68-0.69-4.289-3.66-4.289c-2.67,0-3.84,2.459-4.05,4.289H95.077z"/>
	<path fill="#009FE3" d="M114.037,268.648c0,5.369-3.72,7.709-7.23,7.709c-3.93,0-6.959-2.879-6.959-7.469
		c0-4.859,3.18-7.711,7.2-7.711C111.216,261.177,114.037,264.208,114.037,268.648z M102.517,268.798c0,3.18,1.83,5.578,4.41,5.578
		c2.52,0,4.41-2.369,4.41-5.639c0-2.461-1.23-5.58-4.35-5.58C103.867,263.158,102.517,266.039,102.517,268.798z"/>
	<path fill="#009FE3" d="M134.496,267.148c-0.15-2.82-0.33-6.211-0.301-8.73h-0.09c-0.689,2.371-1.529,4.891-2.549,7.68l-3.57,9.811
		h-1.98l-3.27-9.631c-0.96-2.85-1.77-5.459-2.34-7.859h-0.061c-0.06,2.52-0.209,5.91-0.389,8.939l-0.541,8.67h-2.49l1.41-20.219
		h3.33l3.45,9.779c0.84,2.49,1.53,4.711,2.04,6.811h0.09c0.51-2.041,1.23-4.26,2.13-6.811l3.6-9.779h3.33l1.26,20.219h-2.55
		L134.496,267.148z"/>
	<path fill="#009FE3" d="M149.705,276.027l-0.209-1.83h-0.09c-0.811,1.141-2.371,2.16-4.44,2.16c-2.94,0-4.44-2.07-4.44-4.17
		c0-3.51,3.121-5.43,8.73-5.398v-0.301c0-1.199-0.33-3.359-3.301-3.359c-1.35,0-2.76,0.42-3.779,1.08l-0.6-1.74
		c1.199-0.781,2.939-1.291,4.77-1.291c4.439,0,5.52,3.031,5.52,5.941v5.43c0,1.26,0.061,2.488,0.24,3.479H149.705z M149.316,268.617
		c-2.881-0.059-6.15,0.451-6.15,3.271c0,1.709,1.14,2.52,2.49,2.52c1.89,0,3.09-1.201,3.51-2.43c0.09-0.27,0.15-0.57,0.15-0.84
		V268.617z"/>
	<path fill="#009FE3" d="M156.126,266.248c0-1.859-0.06-3.359-0.12-4.74h2.37l0.12,2.49h0.06c1.08-1.77,2.79-2.82,5.16-2.82
		c3.51,0,6.149,2.971,6.149,7.381c0,5.219-3.18,7.799-6.6,7.799c-1.92,0-3.6-0.84-4.47-2.279h-0.06v7.889h-2.61V266.248z
		 M158.736,270.117c0,0.391,0.06,0.75,0.119,1.08c0.48,1.83,2.07,3.09,3.961,3.09c2.789,0,4.409-2.279,4.409-5.609
		c0-2.91-1.53-5.398-4.319-5.398c-1.801,0-3.48,1.289-3.99,3.27c-0.09,0.33-0.18,0.719-0.18,1.08V270.117z"/>
</g>
</svg>
